<svg width="89" height="27" viewBox="0 0 89 27" fill="none" xmlns="http://www.w3.org/2000/svg">
<g clip-path="url(#clip0)">
<path d="M26.9947 6.65895C26.9632 6.36854 26.7827 6.11151 26.513 5.98563L13.8567 0.0793852C13.6306 -0.0261362 13.3693 -0.0261362 13.1431 0.0793852L0.486896 5.98563C0.217213 6.11151 0.0367559 6.36849 0.00516797 6.65895C0.00448242 6.66501 0 6.7458 0 6.75023V21.094C0 21.439 0.210041 21.7493 0.530402 21.8773L13.1867 26.9398C13.2872 26.9801 13.3936 27.0002 13.5 27.0002C13.6064 27.0002 13.7128 26.9801 13.8133 26.9398L26.4696 21.8773C26.79 21.7493 27 21.439 27 21.094V6.75023C27 6.7458 26.9954 6.66496 26.9947 6.65895ZM13.5 1.77506L24.0334 6.69064L19.9774 8.31307L9.24576 3.7604L13.5 1.77506ZM7.18822 4.72059L17.7533 9.20264L13.5 10.904L2.96662 6.69064L7.18822 4.72059ZM1.6875 7.99645L12.6562 12.3839V24.9102L1.6875 20.5227V7.99645ZM14.3438 24.9103V12.3839L25.3125 7.99645V20.5227L14.3438 24.9103Z" fill="#0A143A"/>
</g>
<path d="M44.1562 18.4844H37.9922L36.8203 22H33.082L39.4336 4.9375H42.6914L49.0781 22H45.3398L44.1562 18.4844ZM38.9414 15.6367H43.207L41.0625 9.25L38.9414 15.6367Z" fill="#0A143A"/>
<path d="M61.875 15.7773C61.875 17.8086 61.4414 19.3945 60.5742 20.5352C59.707 21.668 58.4961 22.2344 56.9414 22.2344C55.5664 22.2344 54.4688 21.707 53.6484 20.6523L53.4961 22H50.4492V4H53.8359V10.457C54.6172 9.54297 55.6445 9.08594 56.918 9.08594C58.4648 9.08594 59.6758 9.65625 60.5508 10.7969C61.4336 11.9297 61.875 13.5273 61.875 15.5898V15.7773ZM58.4883 15.5312C58.4883 14.25 58.2852 13.3164 57.8789 12.7305C57.4727 12.1367 56.8672 11.8398 56.0625 11.8398C54.9844 11.8398 54.2422 12.2812 53.8359 13.1641V18.168C54.25 19.0586 55 19.5039 56.0859 19.5039C57.1797 19.5039 57.8984 18.9648 58.2422 17.8867C58.4062 17.3711 58.4883 16.5859 58.4883 15.5312Z" fill="#0A143A"/>
<path d="M67.5469 22H64.1484V9.32031H67.5469V22ZM63.9492 6.03906C63.9492 5.53125 64.1172 5.11328 64.4531 4.78516C64.7969 4.45703 65.2617 4.29297 65.8477 4.29297C66.4258 4.29297 66.8867 4.45703 67.2305 4.78516C67.5742 5.11328 67.7461 5.53125 67.7461 6.03906C67.7461 6.55469 67.5703 6.97656 67.2188 7.30469C66.875 7.63281 66.418 7.79688 65.8477 7.79688C65.2773 7.79688 64.8164 7.63281 64.4648 7.30469C64.1211 6.97656 63.9492 6.55469 63.9492 6.03906Z" fill="#0A143A"/>
<path d="M73.9219 22H70.5234V4H73.9219V22Z" fill="#0A143A"/>
<path d="M76.1953 15.543C76.1953 14.2852 76.4375 13.1641 76.9219 12.1797C77.4062 11.1953 78.1016 10.4336 79.0078 9.89453C79.9219 9.35547 80.9805 9.08594 82.1836 9.08594C83.8945 9.08594 85.2891 9.60938 86.3672 10.6562C87.4531 11.7031 88.0586 13.125 88.1836 14.9219L88.207 15.7891C88.207 17.7344 87.6641 19.2969 86.5781 20.4766C85.4922 21.6484 84.0352 22.2344 82.207 22.2344C80.3789 22.2344 78.918 21.6484 77.8242 20.4766C76.7383 19.3047 76.1953 17.7109 76.1953 15.6953V15.543ZM79.582 15.7891C79.582 16.9922 79.8086 17.9141 80.2617 18.5547C80.7148 19.1875 81.3633 19.5039 82.207 19.5039C83.0273 19.5039 83.668 19.1914 84.1289 18.5664C84.5898 17.9336 84.8203 16.9258 84.8203 15.543C84.8203 14.3633 84.5898 13.4492 84.1289 12.8008C83.668 12.1523 83.0195 11.8281 82.1836 11.8281C81.3555 11.8281 80.7148 12.1523 80.2617 12.8008C79.8086 13.4414 79.582 14.4375 79.582 15.7891Z" fill="#0A143A"/>
<defs>
<clipPath id="clip0">
<rect width="27" height="27" fill="white"/>
</clipPath>
</defs>
</svg>
